<svg width="218" height="218" viewBox="0 0 218 218" fill="none" xmlns="http://www.w3.org/2000/svg">
<path d="M127.658 16.5971L146.664 54.923C149.256 60.2582 156.167 65.3756 161.999 66.3555L196.447 72.1262C218.476 75.8281 223.66 91.9424 207.786 107.839L181.005 134.841C176.469 139.414 173.985 148.234 175.389 154.549L183.056 187.975C189.104 214.433 175.173 224.668 151.956 210.84L119.667 191.568C113.836 188.084 104.225 188.084 98.2857 191.568L65.9973 210.84C42.8878 224.668 28.8494 214.324 34.8967 187.975L42.5639 154.549C43.9677 148.234 41.484 139.414 36.9485 134.841L10.1675 107.839C-5.5988 91.9424 -0.523359 75.8281 21.5062 72.1262L55.9544 66.3555C61.6778 65.3756 68.589 60.2582 71.1807 54.923L90.1866 16.5971C100.553 -4.19904 117.4 -4.19904 127.658 16.5971Z" fill="#FB6231" stroke="#151515" stroke-linecap="round" stroke-linejoin="round"/>
</svg>
