<svg xmlns="http://www.w3.org/2000/svg">
  <symbol id="logo-white" viewBox="0 0 360 48" fill="none">
    <path d="M342.786 48C339.181 48 336.096 47.289 333.53 45.8671C330.964 44.4309 328.996 42.4345 327.626 39.8779C326.256 37.307 325.571 34.3267 325.571 30.9372C325.571 27.5476 326.256 24.5745 327.626 22.018C328.996 19.447 330.964 17.4506 333.53 16.0287C336.096 14.5925 339.181 13.8743 342.786 13.8743C346.39 13.8743 349.475 14.5925 352.042 16.0287C354.608 17.4506 356.576 19.447 357.946 22.018C359.315 24.5745 360 27.5476 360 30.9372C360 34.3267 359.315 37.307 357.946 39.8779C356.576 42.4345 354.608 44.4309 352.042 45.8671C349.475 47.289 346.39 48 342.786 48ZM342.872 39.21C343.881 39.21 344.754 38.8725 345.489 38.1975C346.224 37.5224 346.794 36.5601 347.197 35.3106C347.601 34.061 347.803 32.5745 347.803 30.851C347.803 29.1131 347.601 27.6266 347.197 26.3914C346.794 25.1418 346.224 24.1795 345.489 23.5045C344.754 22.8294 343.881 22.4919 342.872 22.4919C341.805 22.4919 340.89 22.8294 340.126 23.5045C339.362 24.1795 338.778 25.1418 338.374 26.3914C337.97 27.6266 337.768 29.1131 337.768 30.851C337.768 32.5745 337.97 34.061 338.374 35.3106C338.778 36.5601 339.362 37.5224 340.126 38.1975C340.89 38.8725 341.805 39.21 342.872 39.21Z" fill="white"/>
    <path d="M304.431 48C300.884 48 297.827 47.3249 295.261 45.9749C292.709 44.6104 290.741 42.6571 289.357 40.1149C287.988 37.5583 287.303 34.4991 287.303 30.9372C287.303 27.5188 287.995 24.5314 289.379 21.9749C290.763 19.4183 292.716 17.4291 295.239 16.0072C297.763 14.5853 300.74 13.8743 304.171 13.8743C306.68 13.8743 308.95 14.2621 310.983 15.0377C313.016 15.8133 314.753 16.9408 316.195 18.4201C317.637 19.8851 318.747 21.6661 319.525 23.763C320.304 25.86 320.693 28.2226 320.693 30.851V33.6086H291.022V27.0592H309.707C309.693 26.1113 309.448 25.2783 308.972 24.5601C308.511 23.8276 307.883 23.2603 307.091 22.8582C306.312 22.4416 305.425 22.2334 304.431 22.2334C303.465 22.2334 302.578 22.4416 301.771 22.8582C300.963 23.2603 300.314 23.8205 299.824 24.5386C299.348 25.2567 299.096 26.0969 299.067 27.0592V34.1257C299.067 35.1885 299.291 36.1364 299.738 36.9695C300.185 37.8025 300.826 38.456 301.662 38.93C302.499 39.4039 303.508 39.6409 304.69 39.6409C305.512 39.6409 306.262 39.526 306.939 39.2962C307.631 39.0664 308.222 38.7361 308.712 38.3052C309.203 37.86 309.563 37.3285 309.794 36.7109H320.693C320.318 39.009 319.432 41.0054 318.033 42.7002C316.635 44.3806 314.782 45.6876 312.475 46.6212C310.183 47.5404 307.501 48 304.431 48Z" fill="white"/>
    <path d="M260.069 47.8277C257.704 47.8277 255.527 47.2101 253.538 45.9749C251.562 44.7397 249.977 42.8654 248.78 40.3519C247.598 37.8384 247.007 34.6715 247.007 30.851C247.007 26.8582 247.626 23.6122 248.866 21.1131C250.121 18.614 251.735 16.7828 253.711 15.6194C255.7 14.456 257.791 13.8744 259.982 13.8744C261.626 13.8744 263.067 14.1616 264.307 14.7361C265.547 15.2963 266.585 16.0503 267.421 16.9982C268.258 17.9318 268.892 18.9587 269.325 20.079H269.498V3.27472H281.435V47.3968H269.584V41.9677H269.325C268.863 43.088 268.2 44.0934 267.335 44.9839C266.484 45.86 265.446 46.5566 264.221 47.0736C263.01 47.5763 261.626 47.8277 260.069 47.8277ZM264.48 38.693C265.576 38.693 266.513 38.377 267.292 37.7451C268.085 37.0988 268.69 36.1939 269.108 35.0305C269.541 33.8528 269.757 32.4596 269.757 30.851C269.757 29.2137 269.541 27.8133 269.108 26.6499C268.69 25.4722 268.085 24.5745 267.292 23.9569C266.513 23.325 265.576 23.009 264.48 23.009C263.385 23.009 262.448 23.325 261.669 23.9569C260.905 24.5745 260.314 25.4722 259.896 26.6499C259.492 27.8133 259.29 29.2137 259.29 30.851C259.29 32.4884 259.492 33.8959 259.896 35.0736C260.314 36.237 260.905 37.1347 261.669 37.7666C262.448 38.3842 263.385 38.693 264.48 38.693Z" fill="white"/>
    <path d="M228.807 47.3968V14.3052H240.744V47.3968H228.807ZM234.775 10.8582C233.161 10.8582 231.777 10.3267 230.623 9.26391C229.47 8.20107 228.893 6.9228 228.893 5.42908C228.893 3.93537 229.47 2.65709 230.623 1.59425C231.777 0.531417 233.161 0 234.775 0C236.405 0 237.789 0.531417 238.928 1.59425C240.081 2.65709 240.658 3.93537 240.658 5.42908C240.658 6.9228 240.081 8.20107 238.928 9.26391C237.789 10.3267 236.405 10.8582 234.775 10.8582Z" fill="white"/>
    <path d="M224.193 14.3052L213.034 47.3968H199.194L188.035 14.3052H200.578L205.941 36.1939H206.287L211.65 14.3052H224.193Z" fill="white"/>
    <path d="M150.112 12.9264V3.27472H188.606V12.9264H175.285V47.3968H163.434V12.9264H150.112Z" fill="white"/>
    <path d="M143.174 25.3357V34.298H122.413V25.3357H143.174Z" fill="white"/>
    <path d="M102.148 32.9192V14.3052H114.086V47.3968H102.754V41.1059H102.408C101.687 43.2173 100.425 44.869 98.623 46.0611C96.8208 47.2388 94.6799 47.8277 92.2001 47.8277C89.8789 47.8277 87.846 47.2962 86.1016 46.2334C84.3715 45.1706 83.0235 43.7056 82.0575 41.8384C81.1059 39.9713 80.623 37.8313 80.6085 35.4183V14.3052H92.5461V32.9192C92.5605 34.5566 92.9786 35.842 93.8004 36.7756C94.6366 37.7092 95.8044 38.176 97.3038 38.176C98.2986 38.176 99.1564 37.9677 99.8773 37.5512C100.613 37.1203 101.175 36.5171 101.564 35.7415C101.968 34.9515 102.162 34.0108 102.148 32.9192Z" fill="white"/>
    <path d="M57.332 48C53.7277 48 50.6424 47.289 48.0761 45.8671C45.5098 44.4309 43.5419 42.4345 42.1722 39.8779C40.8026 37.307 40.1178 34.3267 40.1178 30.9372C40.1178 27.5476 40.8026 24.5745 42.1722 22.018C43.5419 19.447 45.5098 17.4506 48.0761 16.0287C50.6424 14.5925 53.7277 13.8743 57.332 13.8743C60.9364 13.8743 64.0217 14.5925 66.588 16.0287C69.1543 17.4506 71.1222 19.447 72.4919 22.018C73.8615 24.5745 74.5463 27.5476 74.5463 30.9372C74.5463 34.3267 73.8615 37.307 72.4919 39.8779C71.1222 42.4345 69.1543 44.4309 66.588 45.8671C64.0217 47.289 60.9364 48 57.332 48Z" fill="white"/>
    <path d="M0 3.27472H13.4081L22.0585 21.1993H22.4045L31.0549 3.27472H44.4631L28.2003 33.5225V47.3968H16.2628V33.5225L0 3.27472Z" fill="white"/>
    <path d="M69.3443 31.5L51.6393 41.8923V21.1077L69.3443 31.5Z" fill="#FB6231"/>
  </symbol>

  <symbol id="logo-orange" viewBox="0 0 240 32" fill="none">
    <path d="M228.524 32C226.121 32 224.064 31.526 222.353 30.578C220.642 29.6205 219.33 28.2896 218.417 26.5852C217.504 24.8713 217.048 22.8845 217.048 20.6247C217.048 18.365 217.504 16.383 218.417 14.6786C219.33 12.9647 220.642 11.6337 222.353 10.6858C224.064 9.72827 226.121 9.24951 228.524 9.24951C230.927 9.24951 232.984 9.72827 234.694 10.6858C236.405 11.6337 237.717 12.9647 238.63 14.6786C239.543 16.383 240 18.365 240 20.6247C240 22.8845 239.543 24.8713 238.63 26.5852C237.717 28.2896 236.405 29.6205 234.694 30.578C232.984 31.526 230.927 32 228.524 32ZM228.581 26.14C229.254 26.14 229.836 25.915 230.326 25.4649C230.816 25.0149 231.196 24.3734 231.465 23.5403C231.734 22.7073 231.869 21.7163 231.869 20.5673C231.869 19.4087 231.734 18.4177 231.465 17.5942C231.196 16.7612 230.816 16.1196 230.326 15.6696C229.836 15.2196 229.254 14.9946 228.581 14.9946C227.87 14.9946 227.26 15.2196 226.75 15.6696C226.241 16.1196 225.852 16.7612 225.583 17.5942C225.314 18.4177 225.179 19.4087 225.179 20.5673C225.179 21.7163 225.314 22.7073 225.583 23.5403C225.852 24.3734 226.241 25.0149 226.75 25.4649C227.26 25.915 227.87 26.14 228.581 26.14Z" fill="#FB6231"/>
    <path d="M202.954 32C200.589 32 198.552 31.5499 196.841 30.6499C195.139 29.7402 193.828 28.438 192.905 26.7432C191.992 25.0389 191.535 22.9994 191.535 20.6247C191.535 18.3459 191.997 16.3542 192.919 14.6499C193.842 12.9455 195.144 11.6193 196.826 10.6714C198.508 9.72348 200.493 9.24951 202.781 9.24951C204.453 9.24951 205.967 9.50804 207.322 10.0251C208.677 10.5421 209.836 11.2938 210.797 12.28C211.758 13.2567 212.498 14.444 213.017 15.842C213.536 17.2399 213.796 18.815 213.796 20.5673V22.4057H194.015V18.0395H206.472C206.462 17.4075 206.298 16.8521 205.981 16.3734C205.674 15.8851 205.256 15.5068 204.727 15.2387C204.208 14.9611 203.617 14.8222 202.954 14.8222C202.31 14.8222 201.719 14.9611 201.18 15.2387C200.642 15.5068 200.21 15.8803 199.883 16.359C199.566 16.8378 199.397 17.3979 199.378 18.0395V22.7504C199.378 23.459 199.527 24.0909 199.825 24.6463C200.123 25.2016 200.551 25.6373 201.108 25.9533C201.666 26.2693 202.339 26.4272 203.127 26.4272C203.675 26.4272 204.174 26.3506 204.626 26.1974C205.087 26.0442 205.482 25.824 205.808 25.5368C206.135 25.2399 206.375 24.8857 206.529 24.4739H213.796C213.546 26.0059 212.955 27.3369 212.022 28.4667C211.09 29.587 209.855 30.4584 208.317 31.0807C206.789 31.6935 205.001 32 202.954 32Z" fill="#FB6231"/>
    <path d="M173.379 31.8851C171.803 31.8851 170.351 31.4733 169.025 30.6499C167.708 29.8264 166.651 28.5769 165.853 26.9012C165.065 25.2256 164.671 23.1143 164.671 20.5673C164.671 17.9054 165.084 15.7414 165.911 14.0754C166.747 12.4093 167.824 11.1885 169.14 10.4129C170.467 9.63732 171.86 9.24953 173.321 9.24953C174.417 9.24953 175.378 9.44103 176.205 9.82404C177.031 10.1975 177.724 10.7002 178.281 11.3321C178.838 11.9545 179.261 12.6391 179.55 13.386H179.665V2.18311H187.623V31.5978H179.723V27.9784H179.55C179.242 28.7253 178.8 29.3955 178.223 29.9892C177.656 30.5733 176.964 31.0377 176.147 31.3824C175.34 31.7175 174.417 31.8851 173.379 31.8851ZM176.32 25.7953C177.051 25.7953 177.675 25.5847 178.194 25.1633C178.723 24.7325 179.127 24.1292 179.406 23.3537C179.694 22.5685 179.838 21.6397 179.838 20.5673C179.838 19.4757 179.694 18.5422 179.406 17.7666C179.127 16.9814 178.723 16.383 178.194 15.9713C177.675 15.5499 177.051 15.3393 176.32 15.3393C175.59 15.3393 174.965 15.5499 174.446 15.9713C173.937 16.383 173.542 16.9814 173.264 17.7666C172.995 18.5422 172.86 19.4757 172.86 20.5673C172.86 21.6589 172.995 22.5972 173.264 23.3824C173.542 24.158 173.937 24.7564 174.446 25.1777C174.965 25.5894 175.59 25.7953 176.32 25.7953Z" fill="#FB6231"/>
    <path d="M152.538 31.5978V9.5368H160.496V31.5978H152.538ZM156.517 7.23878C155.441 7.23878 154.518 6.8845 153.749 6.17594C152.98 5.46738 152.595 4.6152 152.595 3.61939C152.595 2.62358 152.98 1.77139 153.749 1.06283C154.518 0.354278 155.441 0 156.517 0C157.603 0 158.526 0.354278 159.285 1.06283C160.054 1.77139 160.439 2.62358 160.439 3.61939C160.439 4.6152 160.054 5.46738 159.285 6.17594C158.526 6.8845 157.603 7.23878 156.517 7.23878Z" fill="#FB6231"/>
    <path d="M149.462 9.53687L142.023 31.5979H132.796L125.357 9.53687H133.719L137.294 24.1293H137.525L141.1 9.53687H149.462Z" fill="#FB6231"/>
    <path d="M100.075 8.61757V2.18311H125.738V8.61757H116.857V31.5978H108.956V8.61757H100.075Z" fill="#FB6231"/>
    <path d="M95.4494 16.8905V22.8654H81.6087V16.8905H95.4494Z" fill="#FB6231"/>
    <path d="M68.0987 21.9462V9.53687H76.0571V31.5979H68.5024V27.404H68.2717C67.7911 28.8115 66.9501 29.9127 65.7487 30.7074C64.5472 31.4926 63.1199 31.8852 61.4667 31.8852C59.9193 31.8852 58.564 31.5309 57.401 30.8223C56.2476 30.1138 55.349 29.1371 54.705 27.8923C54.0706 26.6476 53.7486 25.2209 53.739 23.6123V9.53687H61.6974V21.9462C61.707 23.0378 61.9857 23.8947 62.5336 24.5171C63.0911 25.1395 63.8696 25.4507 64.8692 25.4507C65.5324 25.4507 66.1043 25.3118 66.5849 25.0342C67.0751 24.7469 67.4499 24.3448 67.7094 23.8277C67.9786 23.3011 68.1083 22.6739 68.0987 21.9462Z" fill="#FB6231"/>
    <path d="M38.2214 32C35.8185 32 33.7616 31.526 32.0507 30.578C30.3399 29.6205 29.0279 28.2896 28.1148 26.5852C27.2017 24.8713 26.7452 22.8845 26.7452 20.6247C26.7452 18.365 27.2017 16.383 28.1148 14.6786C29.0279 12.9647 30.3399 11.6337 32.0507 10.6858C33.7616 9.72827 35.8185 9.24951 38.2214 9.24951C40.6242 9.24951 42.6811 9.72827 44.392 10.6858C46.1028 11.6337 47.4148 12.9647 48.3279 14.6786C49.241 16.383 49.6976 18.365 49.6976 20.6247C49.6976 22.8845 49.241 24.8713 48.3279 26.5852C47.4148 28.2896 46.1028 29.6205 44.392 30.578C42.6811 31.526 40.6242 32 38.2214 32Z" fill="#FB6231"/>
    <path d="M0 2.18311H8.93875L14.7057 14.1328H14.9364L20.7033 2.18311H29.642L18.8002 22.3483V31.5978H10.8418V22.3483L0 2.18311Z" fill="#FB6231"/>
    <path d="M46.2295 21L34.4262 27.9282V14.0718L46.2295 21Z" fill="white"/>
  </symbol>

  <symbol id="star-ob" viewBox="0 0 20 20" fill="none">
    <path d="M11.4417 2.92495L12.9084 5.85828C13.1084 6.26662 13.6417 6.65828 14.0917 6.73328L16.75 7.17495C18.45 7.45828 18.85 8.69162 17.625 9.90828L15.5584 11.975C15.2084 12.325 15.0167 13 15.125 13.4833L15.7167 16.0416C16.1834 18.0666 15.1084 18.85 13.3167 17.7916L10.825 16.3166C10.375 16.05 9.63338 16.05 9.17505 16.3166L6.68338 17.7916C4.90005 18.85 3.81671 18.0583 4.28338 16.0416L4.87505 13.4833C4.98338 13 4.79171 12.325 4.44171 11.975L2.37505 9.90828C1.15838 8.69162 1.55005 7.45828 3.25005 7.17495L5.90838 6.73328C6.35005 6.65828 6.88338 6.26662 7.08338 5.85828L8.55005 2.92495C9.35005 1.33328 10.65 1.33328 11.4417 2.92495Z" stroke="currentColor" stroke-linecap="round" stroke-linejoin="round"/>
  </symbol>

  <symbol id="star-ow" viewBox="0 0 20 20" fill="none">
    <path d="M11.4416 2.92495L12.9083 5.85828C13.1083 6.26662 13.6416 6.65828 14.0916 6.73328L16.7499 7.17495C18.4499 7.45828 18.8499 8.69162 17.6249 9.90828L15.5583 11.975C15.2083 12.325 15.0166 13 15.1249 13.4833L15.7166 16.0416C16.1833 18.0666 15.1083 18.85 13.3166 17.7916L10.8249 16.3166C10.3749 16.05 9.63326 16.05 9.17492 16.3166L6.68326 17.7916C4.89992 18.85 3.81659 18.0583 4.28326 16.0416L4.87492 13.4833C4.98326 13 4.79159 12.325 4.44159 11.975L2.37492 9.90828C1.15826 8.69162 1.54992 7.45828 3.24992 7.17495L5.90826 6.73328C6.34992 6.65828 6.88326 6.26662 7.08326 5.85828L8.54992 2.92495C9.34992 1.33328 10.6499 1.33328 11.4416 2.92495Z" stroke="white" stroke-linecap="round" stroke-linejoin="round"/>
  </symbol>

  <symbol id="search" viewBox="0 0 20 20" fill="none">
    <path d="M9.66659 16C13.1644 16 15.9999 13.1644 15.9999 9.66665C15.9999 6.16884 13.1644 3.33331 9.66659 3.33331C6.16878 3.33331 3.33325 6.16884 3.33325 9.66665C3.33325 13.1644 6.16878 16 9.66659 16Z" stroke="white" stroke-width="1.5" stroke-linecap="round" stroke-linejoin="round"/>
    <path d="M16.6666 16.6666L15.3333 15.3333" stroke="white" stroke-width="1.5" stroke-linecap="round" stroke-linejoin="round"/>
  </symbol>

  <symbol id="star-white" viewBox="0 0 20 20" fill="none">
    <path d="M11.4416 2.92501L12.9083 5.85835C13.1083 6.26668 13.6416 6.65835 14.0916 6.73335L16.7499 7.17501C18.4499 7.45835 18.8499 8.69168 17.6249 9.90835L15.5583 11.975C15.2083 12.325 15.0166 13 15.1249 13.4833L15.7166 16.0417C16.1833 18.0667 15.1083 18.85 13.3166 17.7917L10.8249 16.3167C10.3749 16.05 9.63326 16.05 9.17492 16.3167L6.68326 17.7917C4.89992 18.85 3.81659 18.0583 4.28326 16.0417L4.87492 13.4833C4.98326 13 4.79159 12.325 4.44159 11.975L2.37492 9.90835C1.15826 8.69168 1.54992 7.45835 3.24992 7.17501L5.90826 6.73335C6.34992 6.65835 6.88326 6.26668 7.08326 5.85835L8.54992 2.92501C9.34992 1.33335 10.6499 1.33335 11.4416 2.92501Z" fill="white" stroke="#151515" stroke-linecap="round" stroke-linejoin="round"/>
  </symbol>

  <symbol id="star-orange" viewBox="0 0 20 20" fill="none">
    <path d="M11.4417 2.92501L12.9083 5.85835C13.1083 6.26668 13.6417 6.65835 14.0917 6.73335L16.75 7.17501C18.45 7.45835 18.85 8.69168 17.625 9.90835L15.5583 11.975C15.2083 12.325 15.0167 13 15.125 13.4833L15.7167 16.0417C16.1833 18.0667 15.1083 18.85 13.3167 17.7917L10.825 16.3167C10.375 16.05 9.63332 16.05 9.17499 16.3167L6.68332 17.7917C4.89999 18.85 3.81665 18.0583 4.28332 16.0417L4.87499 13.4833C4.98332 13 4.79165 12.325 4.44165 11.975L2.37499 9.90835C1.15832 8.69168 1.54999 7.45835 3.24999 7.17501L5.90832 6.73335C6.34999 6.65835 6.88332 6.26668 7.08332 5.85835L8.54999 2.92501C9.34999 1.33335 10.65 1.33335 11.4417 2.92501Z" fill="#FF6A00" stroke="white" stroke-linecap="round" stroke-linejoin="round"/>
  </symbol>
</svg>